<svg width="40" height="40" viewBox="0 0 40 40" fill="none" xmlns="http://www.w3.org/2000/svg">
  <!-- Base pin shape -->
  <path d="M20 0C12.268 0 6 6.268 6 14C6 24.5 20 40 20 40C20 40 34 24.5 34 14C34 6.268 27.732 0 20 0Z" fill="#FF5722"/>
  <path d="M20 2C13.373 2 8 7.373 8 14C8 23 20 36 20 36C20 36 32 23 32 14C32 7.373 26.627 2 20 2Z" fill="#FF7043"/>
  
  <!-- Hard hat -->
  <path d="M20 7C16.134 7 13 10.134 13 14C13 17.866 16.134 21 20 21C23.866 21 27 17.866 27 14C27 10.134 23.866 7 20 7Z" fill="#FFB300"/>
  <path d="M14 14C14 14 16 12 20 12C24 12 26 14 26 14C26 14 25 10 20 10C15 10 14 14 14 14Z" fill="#FFC107"/>
  <path d="M20 10C17.5 10 15.5 11 14.5 12.5C14.5 12.5 15 13.5 20 13.5C25 13.5 25.5 12.5 25.5 12.5C24.5 11 22.5 10 20 10Z" fill="#FFECB3"/>
</svg>